<svg width="32" height="32" viewBox="0 0 32 32" fill="none" xmlns="http://www.w3.org/2000/svg">
<path d="M26.4925 13.727L16.7404 4.45563C16.4234 4.15422 16.0059 3.99111 15.5752 4.00037C15.1445 4.00964 14.734 4.19058 14.4294 4.50536L5.46028 13.7738L5 14.2494V27.913H13.6429V19.3877H18.3571V27.913H27V14.2095L26.4925 13.727ZM15.609 5.6239C15.6229 5.6239 15.6143 5.627 15.6084 5.63304C15.6022 5.627 15.5952 5.6239 15.609 5.6239ZM25.4286 26.2892H19.9286V19.3877C19.9286 18.957 19.763 18.544 19.4683 18.2395C19.1736 17.9349 18.7739 17.7638 18.3571 17.7638H13.6429C13.2261 17.7638 12.8264 17.9349 12.5317 18.2395C12.237 18.544 12.0714 18.957 12.0714 19.3877V26.2892H6.57143V14.9221L15.6084 5.71501L15.6102 5.65181L25.4286 14.9221V26.2892Z" fill="#2A1019"/>
</svg>
